<svg xmlns="http://www.w3.org/2000/svg" viewBox="0 0 1200 680" font-family="-apple-system, 'Segoe UI', 'Amazon Ember', sans-serif">
  <defs>
    <filter id="card-shadow" x="-5%" y="-5%" width="110%" height="120%">
      <feDropShadow dx="0" dy="1" stdDeviation="0" flood-color="#060912" flood-opacity="1"/>
      <feDropShadow dx="0" dy="8" stdDeviation="12" flood-color="#000" flood-opacity="0.55"/>
    </filter>
    <linearGradient id="headerOracle" x1="0" y1="0" x2="1" y2="0">
      <stop offset="0%" stop-color="#fbbf24"/><stop offset="100%" stop-color="#f59e0b"/>
    </linearGradient>
    <linearGradient id="headerAurora" x1="0" y1="0" x2="1" y2="0">
      <stop offset="0%" stop-color="#60a5fa"/><stop offset="100%" stop-color="#3b82f6"/>
    </linearGradient>
    <linearGradient id="headerEngine" x1="0" y1="0" x2="1" y2="0">
      <stop offset="0%" stop-color="#5eead4"/><stop offset="100%" stop-color="#2dd4bf"/>
    </linearGradient>
    <linearGradient id="headerDash" x1="0" y1="0" x2="1" y2="0">
      <stop offset="0%" stop-color="#8b5cf6"/><stop offset="100%" stop-color="#a78bfa"/>
    </linearGradient>
    <marker id="arrowAurora" markerWidth="10" markerHeight="10" refX="9" refY="3" orient="auto"><path d="M0,0 L9,3 L0,6 Z" fill="#60a5fa"/></marker>
    <marker id="arrowOracle" markerWidth="10" markerHeight="10" refX="9" refY="3" orient="auto"><path d="M0,0 L9,3 L0,6 Z" fill="#fbbf24"/></marker>
    <marker id="arrowMint" markerWidth="10" markerHeight="10" refX="9" refY="3" orient="auto"><path d="M0,0 L9,3 L0,6 Z" fill="#5eead4"/></marker>
    <marker id="arrowDim" markerWidth="10" markerHeight="10" refX="9" refY="3" orient="auto"><path d="M0,0 L9,3 L0,6 Z" fill="#6b7685"/></marker>
  </defs>

  <!-- Canvas -->
  <rect width="1200" height="680" rx="16" fill="#0a0f1d"/>

  <!-- Title -->
  <text x="40" y="50" font-size="22" font-weight="700" fill="#f4f7fb" letter-spacing="-0.01em">LastMile2Aurora · Architecture</text>
  <text x="40" y="74" font-size="14" fill="#8b94a6" letter-spacing="0.04em">Oracle → Aurora PostgreSQL migration performance watchdog</text>
  <line x1="40" y1="90" x2="1160" y2="90" stroke="#1f2838" stroke-width="1"/>

  <!-- Column labels -->
  <text x="125"  y="118" text-anchor="middle" font-size="11" font-weight="700" fill="#6a7285" letter-spacing="0.2em">SOURCES</text>
  <text x="450"  y="118" text-anchor="middle" font-size="11" font-weight="700" fill="#6a7285" letter-spacing="0.2em">DATABASES</text>
  <text x="800"  y="118" text-anchor="middle" font-size="11" font-weight="700" fill="#6a7285" letter-spacing="0.2em">WATCHDOG ENGINE</text>
  <text x="1088" y="118" text-anchor="middle" font-size="11" font-weight="700" fill="#6a7285" letter-spacing="0.2em">UI</text>

  <!-- ================= SOURCES ================= -->
  <g filter="url(#card-shadow)">
    <rect x="40" y="140" width="200" height="100" rx="10" fill="#0f1628" stroke="#2a3244"/>
    <rect x="40" y="140" width="200" height="4" rx="2" fill="url(#headerDash)"/>
  </g>
  <text x="140" y="174" text-anchor="middle" font-size="16" font-weight="600" fill="#f4f7fb">Customer Application</text>
  <text x="140" y="196" text-anchor="middle" font-size="13" fill="#8b94a6">Tagged SQL queries</text>
  <text x="140" y="218" text-anchor="middle" font-size="12" fill="#a78bfa" font-family="'JetBrains Mono', 'SF Mono', Menlo, Consolas, monospace">/* tag:order_lookup */</text>

  <g filter="url(#card-shadow)">
    <rect x="40" y="260" width="200" height="94" rx="10" fill="#0f1628" stroke="#2a3244" stroke-dasharray="3 3"/>
    <rect x="40" y="260" width="200" height="4" rx="2" fill="#6a7285"/>
  </g>
  <text x="140" y="292" text-anchor="middle" font-size="16" font-weight="600" fill="#d6dde8">HammerDB <tspan fill="#6a7285" font-size="13" font-weight="400">(demo)</tspan></text>
  <text x="140" y="314" text-anchor="middle" font-size="13" fill="#8b94a6">TPC-C load generator</text>
  <text x="140" y="334" text-anchor="middle" font-size="12" fill="#6a7285">Small / Medium / Large</text>

  <!-- ================= DATABASES (inside VPC dashed box) ================= -->
  <g>
    <rect x="330" y="140" width="240" height="360" rx="12" fill="none" stroke="#1f2838" stroke-width="1" stroke-dasharray="5 4"/>
    <rect x="342" y="130" width="100" height="22" rx="3" fill="#0a0f1d"/>
    <text x="392" y="146" text-anchor="middle" font-size="11" fill="#6a7285" letter-spacing="0.14em">VPC · PRIVATE</text>
  </g>

  <!-- Oracle EE 19c -->
  <g filter="url(#card-shadow)">
    <rect x="352" y="170" width="196" height="146" rx="10" fill="#0f1628" stroke="#2a3244"/>
    <rect x="352" y="170" width="196" height="4" rx="2" fill="url(#headerOracle)"/>
  </g>
  <text x="450" y="206" text-anchor="middle" font-size="17" font-weight="700" fill="#fbbf24">Oracle EE 19c</text>
  <text x="450" y="228" text-anchor="middle" font-size="12" fill="#d6dde8">Source database</text>
  <text x="450" y="254" text-anchor="middle" font-size="12" fill="#8b94a6" font-family="'JetBrains Mono', monospace">V$SQL · V$SESSTAT</text>
  <text x="450" y="274" text-anchor="middle" font-size="12" fill="#8b94a6">elapsed_time · disk_reads</text>
  <text x="450" y="298" text-anchor="middle" font-size="11" fill="#6a7285">Encrypted · KMS CMK</text>

  <!-- Aurora PG 16 -->
  <g filter="url(#card-shadow)">
    <rect x="352" y="334" width="196" height="146" rx="10" fill="#0f1628" stroke="#2a3244"/>
    <rect x="352" y="334" width="196" height="4" rx="2" fill="url(#headerAurora)"/>
  </g>
  <text x="450" y="370" text-anchor="middle" font-size="17" font-weight="700" fill="#60a5fa">Aurora PostgreSQL 16</text>
  <text x="450" y="392" text-anchor="middle" font-size="12" fill="#d6dde8">Target database</text>
  <text x="450" y="418" text-anchor="middle" font-size="12" fill="#8b94a6" font-family="'JetBrains Mono', monospace">pg_stat_statements</text>
  <text x="450" y="438" text-anchor="middle" font-size="11" fill="#8b94a6">EXPLAIN ANALYZE · BUFFERS</text>
  <text x="450" y="462" text-anchor="middle" font-size="11" fill="#6a7285">Encrypted · KMS CMK</text>

  <!-- ================= ENGINE (ECS Fargate) ================= -->
  <g filter="url(#card-shadow)">
    <rect x="640" y="140" width="320" height="360" rx="12" fill="#0f1628" stroke="#2a3244"/>
    <rect x="640" y="140" width="320" height="46" rx="12" fill="url(#headerEngine)"/>
    <rect x="640" y="164" width="320" height="22" fill="url(#headerEngine)"/>
  </g>
  <text x="800" y="170" text-anchor="middle" font-size="17" font-weight="700" fill="#0a0f1d">LastMile2Aurora · ECS Fargate</text>
  <text x="800" y="205" text-anchor="middle" font-size="11" fill="#6a7285" letter-spacing="0.08em">FASTAPI · PYTHON 3.11 · BEHIND ALB + CLOUDFRONT</text>

  <!-- 4 engine sub-cards (2x2), then Apply&Verify, then services -->
  <g>
    <rect x="660" y="220" width="136" height="72" rx="7" fill="#141c34" stroke="#2a3244"/>
    <text x="728" y="246" text-anchor="middle" font-size="14" font-weight="600" fill="#5eead4">Tag Matcher</text>
    <text x="728" y="266" text-anchor="middle" font-size="11" fill="#8b94a6">Parses /* tag:… */</text>
    <text x="728" y="282" text-anchor="middle" font-size="11" fill="#8b94a6">Oracle ↔ PG pairing</text>
  </g>
  <g>
    <rect x="804" y="220" width="136" height="72" rx="7" fill="#141c34" stroke="#2a3244"/>
    <text x="872" y="246" text-anchor="middle" font-size="14" font-weight="600" fill="#60a5fa">Perf Compare</text>
    <text x="872" y="266" text-anchor="middle" font-size="11" fill="#8b94a6">Blocks vs pages</text>
    <text x="872" y="282" text-anchor="middle" font-size="11" fill="#8b94a6">Engine-only time</text>
  </g>
  <g>
    <rect x="660" y="300" width="136" height="72" rx="7" fill="#141c34" stroke="#2a3244"/>
    <text x="728" y="326" text-anchor="middle" font-size="14" font-weight="600" fill="#fbbf24">Deep Diff</text>
    <text x="728" y="346" text-anchor="middle" font-size="11" fill="#8b94a6">Row-set equality</text>
    <text x="728" y="362" text-anchor="middle" font-size="11" fill="#8b94a6">Schema-aware</text>
  </g>
  <g>
    <rect x="804" y="300" width="136" height="72" rx="7" fill="#141c34" stroke="#2a3244"/>
    <text x="872" y="326" text-anchor="middle" font-size="14" font-weight="600" fill="#fb7185">LLM Rewrite</text>
    <text x="872" y="346" text-anchor="middle" font-size="11" fill="#8b94a6">Amazon Bedrock</text>
    <text x="872" y="362" text-anchor="middle" font-size="11" fill="#8b94a6">Claude Sonnet 4.5</text>
  </g>
  <g>
    <rect x="660" y="380" width="280" height="56" rx="7" fill="#141c34" stroke="#2a3244"/>
    <text x="800" y="404" text-anchor="middle" font-size="14" font-weight="600" fill="#d6dde8">Apply &amp; Verify</text>
    <text x="800" y="422" text-anchor="middle" font-size="11" fill="#8b94a6">Runs rewrite on PG · row-set identical · flags verdict</text>
  </g>
  <g>
    <rect x="660" y="444" width="280" height="42" rx="7" fill="#0a0f1d" stroke="#1f2838"/>
    <text x="800" y="470" text-anchor="middle" font-size="10.5" fill="#6a7285" letter-spacing="0.03em">Cognito Auth · CloudWatch · WebSocket</text>
  </g>

  <!-- ================= UI COLUMN ================= -->
  <g filter="url(#card-shadow)">
    <rect x="1010" y="140" width="150" height="360" rx="10" fill="#0f1628" stroke="#2a3244"/>
    <rect x="1010" y="140" width="150" height="4" rx="2" fill="url(#headerDash)"/>
  </g>
  <text x="1085" y="172" text-anchor="middle" font-size="15" font-weight="700" fill="#c4b5fd">Dashboard</text>
  <text x="1085" y="190" text-anchor="middle" font-size="11" fill="#6a7285">CloudFront + ALB</text>

  <g>
    <rect x="1024" y="206" width="122" height="50" rx="6" fill="#141c34" stroke="#2a3244"/>
    <text x="1085" y="226" text-anchor="middle" font-size="13" font-weight="600" fill="#5eead4">Live Monitor</text>
    <text x="1085" y="242" text-anchor="middle" font-size="10" fill="#8b94a6">Tagged stream</text>
  </g>
  <g>
    <rect x="1024" y="264" width="122" height="50" rx="6" fill="#141c34" stroke="#2a3244"/>
    <text x="1085" y="284" text-anchor="middle" font-size="13" font-weight="600" fill="#fbbf24">Translate</text>
    <text x="1085" y="300" text-anchor="middle" font-size="10" fill="#8b94a6">Oracle → PG</text>
  </g>
  <g>
    <rect x="1024" y="322" width="122" height="50" rx="6" fill="#141c34" stroke="#2a3244"/>
    <text x="1085" y="342" text-anchor="middle" font-size="13" font-weight="600" fill="#60a5fa">Reports</text>
    <text x="1085" y="358" text-anchor="middle" font-size="10" fill="#8b94a6">Regressions</text>
  </g>
  <g>
    <rect x="1024" y="380" width="122" height="50" rx="6" fill="#141c34" stroke="#2a3244"/>
    <text x="1085" y="400" text-anchor="middle" font-size="13" font-weight="600" fill="#fb7185">Admin</text>
    <text x="1085" y="416" text-anchor="middle" font-size="10" fill="#8b94a6">Alerts · Audit</text>
  </g>
  <g>
    <rect x="1024" y="444" width="122" height="42" rx="6" fill="#0a0f1d" stroke="#1f2838"/>
    <text x="1085" y="470" text-anchor="middle" font-size="11" fill="#6a7285">Cloudscape</text>
  </g>

  <!-- ================= FLOW ARROWS ================= -->
  <line x1="242" y1="188" x2="350" y2="220" stroke="#a78bfa" stroke-width="1.5" marker-end="url(#arrowDim)" opacity="0.75"/>
  <line x1="242" y1="206" x2="350" y2="390" stroke="#a78bfa" stroke-width="1.5" marker-end="url(#arrowDim)" opacity="0.75"/>
  <line x1="242" y1="302" x2="350" y2="250" stroke="#6a7285" stroke-width="1" marker-end="url(#arrowDim)" stroke-dasharray="3 3"/>
  <line x1="242" y1="320" x2="350" y2="420" stroke="#6a7285" stroke-width="1" marker-end="url(#arrowDim)" stroke-dasharray="3 3"/>

  <line x1="552" y1="240" x2="638" y2="255" stroke="#fbbf24" stroke-width="2" marker-end="url(#arrowOracle)"/>
  <text x="588" y="232" font-size="12" fill="#fbbf24" font-family="'JetBrains Mono', monospace">V$SQL</text>

  <line x1="552" y1="410" x2="638" y2="335" stroke="#60a5fa" stroke-width="2" marker-end="url(#arrowAurora)"/>
  <text x="576" y="388" font-size="12" fill="#60a5fa" font-family="'JetBrains Mono', monospace">pg_stat</text>

  <line x1="962" y1="320" x2="1008" y2="320" stroke="#5eead4" stroke-width="2.5" marker-end="url(#arrowMint)"/>
  <text x="985" y="310" text-anchor="middle" font-size="12" fill="#5eead4" font-family="'JetBrains Mono', monospace">WSS</text>

  <!-- ================= AWS PLATFORM FOOTER ================= -->
  <g>
    <rect x="40" y="538" width="1120" height="112" rx="12" fill="#0c1121" stroke="#1f2838"/>
    <text x="60" y="562" font-size="11" font-weight="700" fill="#6a7285" letter-spacing="0.18em">AWS PLATFORM</text>
  </g>

  <g>
    <rect x="60" y="576" width="174" height="54" rx="7" fill="#141c34" stroke="#2a3244"/>
    <text x="147" y="600" text-anchor="middle" font-size="13" font-weight="600" fill="#60a5fa">Amazon Bedrock</text>
    <text x="147" y="618" text-anchor="middle" font-size="11" fill="#8b94a6">Claude Sonnet 4.5</text>
  </g>
  <g>
    <rect x="242" y="576" width="174" height="54" rx="7" fill="#141c34" stroke="#2a3244"/>
    <text x="329" y="600" text-anchor="middle" font-size="13" font-weight="600" fill="#5eead4">Amazon RDS</text>
    <text x="329" y="618" text-anchor="middle" font-size="11" fill="#8b94a6">Oracle EE · Aurora PG</text>
  </g>
  <g>
    <rect x="424" y="576" width="174" height="54" rx="7" fill="#141c34" stroke="#2a3244"/>
    <text x="511" y="600" text-anchor="middle" font-size="13" font-weight="600" fill="#fbbf24">Amazon ECS</text>
    <text x="511" y="618" text-anchor="middle" font-size="11" fill="#8b94a6">Fargate · ALB · VPC</text>
  </g>
  <g>
    <rect x="606" y="576" width="174" height="54" rx="7" fill="#141c34" stroke="#2a3244"/>
    <text x="693" y="600" text-anchor="middle" font-size="13" font-weight="600" fill="#fb7185">Amazon Cognito</text>
    <text x="693" y="618" text-anchor="middle" font-size="11" fill="#8b94a6">MFA · @amazon.com</text>
  </g>
  <g>
    <rect x="788" y="576" width="174" height="54" rx="7" fill="#141c34" stroke="#2a3244"/>
    <text x="875" y="600" text-anchor="middle" font-size="13" font-weight="600" fill="#c4b5fd">CloudFront</text>
    <text x="875" y="618" text-anchor="middle" font-size="11" fill="#8b94a6">HTTPS · WAF</text>
  </g>
  <g>
    <rect x="970" y="576" width="170" height="54" rx="7" fill="#141c34" stroke="#2a3244"/>
    <text x="1055" y="600" text-anchor="middle" font-size="13" font-weight="600" fill="#d6dde8">CloudWatch · KMS</text>
    <text x="1055" y="618" text-anchor="middle" font-size="11" fill="#8b94a6">Logs · encryption</text>
  </g>

  <text x="1160" y="668" text-anchor="end" font-size="10" fill="#4a5366" letter-spacing="0.1em" font-family="'JetBrains Mono', monospace">ARCH · V3</text>
</svg>
